<svg xmlns="http://www.w3.org/2000/svg" width="840" height="1188" viewBox="0 0 840 1188">
<rect width="840" height="1188" fill="#ffffff"/>
<text x="420.0" y="82" text-anchor="middle" font-family="DejaVu Sans, Helvetica, Arial, sans-serif" font-size="26" font-weight="bold" fill="#21304a">Bára hlídá slepice</text>
<clipPath id="clip56_96"><rect x="56.0" y="96.0" width="352.0" height="506.0" rx="10"/></clipPath>
<g clip-path="url(#clip56_96)">
<rect x="56.0" y="96.0" width="352.0" height="506.0" fill="#fbfaf6"/>
<g transform="translate(39.69,212.38) scale(1.3599)">
<g stroke="#21304a" stroke-width="5" stroke-linecap="round" stroke-linejoin="round">
    <!-- legs -->
    <path d="M84 238 L80 300" fill="none" stroke="#2f3a4f" stroke-width="17"/>
    <path d="M116 238 L120 300" fill="none" stroke="#2f3a4f" stroke-width="17"/>
    <!-- shoes -->
    <path d="M68 303 Q80 313 93 305" fill="none" stroke="#21304a" stroke-width="12"/>
    <path d="M107 305 Q120 313 132 303" fill="none" stroke="#21304a" stroke-width="12"/>
    <!-- torso -->
    <path d="M72 160 Q100 150 128 160 L122 236 Q100 245 78 236 Z" fill="#4c8bf5"/>
    <!-- neck -->
    <path d="M100 140 L100 156" stroke="#f3c9a0" stroke-width="18" stroke-linecap="butt"/>
    <!-- head -->
    <circle cx="100" cy="92" r="50" fill="#f3c9a0"/>
    <!-- hair -->
    <path d="M51 92 Q48 42 100 42 Q152 42 149 92 Q140 64 100 62 Q60 64 51 92 Z"
          fill="#6b4a2b" stroke="none"/>
  </g>
<g fill="none" stroke="#4c8bf5" stroke-width="13" stroke-linecap="round">
    <path d="M76 168 Q63 200 70 230"/>
    <path d="M124 166 Q150 130 150 98"/>
  </g>
  <circle cx="70" cy="232" r="8" fill="#f3c9a0" stroke="#21304a" stroke-width="4"/>
  <circle cx="150" cy="94" r="9" fill="#f3c9a0" stroke="#21304a" stroke-width="4"/>
<g stroke="#21304a" stroke-width="4.5" stroke-linecap="round" fill="none">
    <path d="M77 90 Q83 84 89 90"/>
    <path d="M111 90 Q117 84 123 90"/>
    <path d="M83 112 Q100 132 117 112 Q100 119 83 112 Z" fill="#7a2b38" stroke="#21304a"/>
  </g>
</g>
<g transform="translate(154.27,374.30) scale(1.2931)">
<g stroke="#21304a" stroke-width="5" stroke-linecap="round" stroke-linejoin="round">
    <!-- tail -->
    <path d="M42 104 Q14 96 24 66" fill="none" stroke="#f7f7f4" stroke-width="16"/>
    <!-- legs -->
    <path d="M74 128 L70 156" fill="none" stroke="#f7f7f4" stroke-width="12"/>
    <path d="M104 132 L102 158" fill="none" stroke="#f7f7f4" stroke-width="12"/>
    <path d="M150 132 L150 158" fill="none" stroke="#f7f7f4" stroke-width="12"/>
    <path d="M176 128 L180 156" fill="none" stroke="#f7f7f4" stroke-width="12"/>
    <!-- body -->
    <ellipse cx="112" cy="104" rx="76" ry="40" fill="#f7f7f4"/>
    <!-- head -->
    <circle cx="192" cy="92" r="33" fill="#f7f7f4"/>
    <!-- snout -->
    <path d="M214 90 Q236 95 231 108 Q223 117 208 112 Z" fill="#f7f7f4"/>
    <!-- ears -->
    <path d="M168 70 Q170 44 186 46 Q188 64 180 78 Z" fill="#23262e" stroke="#21304a"/>
    <path d="M198 66 Q210 46 222 54 Q220 72 208 80 Z" fill="#23262e" stroke="#21304a"/>
    <!-- black saddle on back -->
    <path d="M58 96 Q70 70 118 66 Q166 70 176 98 Q150 112 112 112 Q74 112 58 96 Z"
          fill="#23262e" stroke="none"/>
    <!-- black head patch (leaves white blaze + muzzle) -->
    <path d="M170 92 Q168 58 190 58 Q206 60 206 80 Q196 76 186 80 Q176 82 170 92 Z"
          fill="#23262e" stroke="none"/>
    <!-- collar -->
    <path d="M166 104 Q184 118 204 104" fill="none" stroke="#e0a33a" stroke-width="8"/>
    <circle cx="186" cy="116" r="4" fill="#e0a33a" stroke="#21304a" stroke-width="2"/>
  </g>
<g stroke="#21304a" stroke-width="3.5" stroke-linecap="round" fill="none">
    <circle cx="198" cy="88" r="4.6" fill="#21304a" stroke="none"/>
    <circle cx="199.6" cy="86.6" r="1.4" fill="#ffffff" stroke="none"/>
    <ellipse cx="230" cy="102" rx="6" ry="5" fill="#21242b" stroke="none"/>
    <path d="M214 110 Q222 116 230 110"/>
  </g>
</g>
<g><rect x="123.9" y="163.1" width="216.2" height="48.0" rx="18.0" fill="#ffffff" stroke="#21304a" stroke-width="3"/><path d="M188.5 201.2 L182.7 308.5 L208.9 209.5 Z" fill="#ffffff" stroke="#21304a" stroke-width="3" stroke-linejoin="round"/><text text-anchor="middle" font-family="DejaVu Sans, Helvetica, Arial, sans-serif" font-size="16" fill="#21304a" ><tspan x="232.0" y="193.1">Báro, hlídej slepice!</tspan></text></g>
</g>
<rect x="56.0" y="96.0" width="352.0" height="506.0" rx="10" fill="none" stroke="#21304a" stroke-width="3.5"/>
<clipPath id="clip432_96"><rect x="432.0" y="96.0" width="352.0" height="506.0" rx="10"/></clipPath>
<g clip-path="url(#clip432_96)">
<rect x="432.0" y="96.0" width="352.0" height="506.0" fill="#fbfaf6"/>
<g transform="translate(654.9,151.7) scale(14.618)"><g shape-rendering="crispEdges"><rect x="3.00" y="0.00" width="1.00" height="1.00" fill="#f4c430"/><rect x="5.00" y="0.00" width="1.00" height="1.00" fill="#f4c430"/><rect x="0.00" y="1.00" width="1.00" height="1.00" fill="#f4c430"/><rect x="3.00" y="1.00" width="1.00" height="1.00" fill="#f4c430"/><rect x="4.00" y="1.00" width="1.00" height="1.00" fill="#f4c430"/><rect x="5.00" y="1.00" width="1.00" height="1.00" fill="#f4c430"/><rect x="8.00" y="1.00" width="1.00" height="1.00" fill="#f4c430"/><rect x="1.00" y="2.00" width="1.00" height="1.00" fill="#f4c430"/><rect x="2.00" y="2.00" width="1.00" height="1.00" fill="#e8923a"/><rect x="3.00" y="2.00" width="1.00" height="1.00" fill="#f4c430"/><rect x="4.00" y="2.00" width="1.00" height="1.00" fill="#f4c430"/><rect x="5.00" y="2.00" width="1.00" height="1.00" fill="#f4c430"/><rect x="6.00" y="2.00" width="1.00" height="1.00" fill="#e8923a"/><rect x="7.00" y="2.00" width="1.00" height="1.00" fill="#f4c430"/><rect x="2.00" y="3.00" width="1.00" height="1.00" fill="#f4c430"/><rect x="3.00" y="3.00" width="1.00" height="1.00" fill="#f4c430"/><rect x="4.00" y="3.00" width="1.00" height="1.00" fill="#f4c430"/><rect x="5.00" y="3.00" width="1.00" height="1.00" fill="#f4c430"/><rect x="6.00" y="3.00" width="1.00" height="1.00" fill="#f4c430"/><rect x="0.00" y="4.00" width="1.00" height="1.00" fill="#f4c430"/><rect x="1.00" y="4.00" width="1.00" height="1.00" fill="#f4c430"/><rect x="2.00" y="4.00" width="1.00" height="1.00" fill="#f4c430"/><rect x="3.00" y="4.00" width="1.00" height="1.00" fill="#f4c430"/><rect x="4.00" y="4.00" width="1.00" height="1.00" fill="#f4c430"/><rect x="5.00" y="4.00" width="1.00" height="1.00" fill="#f4c430"/><rect x="6.00" y="4.00" width="1.00" height="1.00" fill="#f4c430"/><rect x="7.00" y="4.00" width="1.00" height="1.00" fill="#f4c430"/><rect x="8.00" y="4.00" width="1.00" height="1.00" fill="#f4c430"/><rect x="2.00" y="5.00" width="1.00" height="1.00" fill="#f4c430"/><rect x="3.00" y="5.00" width="1.00" height="1.00" fill="#f4c430"/><rect x="4.00" y="5.00" width="1.00" height="1.00" fill="#f4c430"/><rect x="5.00" y="5.00" width="1.00" height="1.00" fill="#f4c430"/><rect x="6.00" y="5.00" width="1.00" height="1.00" fill="#f4c430"/><rect x="1.00" y="6.00" width="1.00" height="1.00" fill="#f4c430"/><rect x="2.00" y="6.00" width="1.00" height="1.00" fill="#e8923a"/><rect x="3.00" y="6.00" width="1.00" height="1.00" fill="#f4c430"/><rect x="4.00" y="6.00" width="1.00" height="1.00" fill="#f4c430"/><rect x="5.00" y="6.00" width="1.00" height="1.00" fill="#f4c430"/><rect x="6.00" y="6.00" width="1.00" height="1.00" fill="#e8923a"/><rect x="7.00" y="6.00" width="1.00" height="1.00" fill="#f4c430"/><rect x="0.00" y="7.00" width="1.00" height="1.00" fill="#f4c430"/><rect x="3.00" y="7.00" width="1.00" height="1.00" fill="#f4c430"/><rect x="4.00" y="7.00" width="1.00" height="1.00" fill="#f4c430"/><rect x="5.00" y="7.00" width="1.00" height="1.00" fill="#f4c430"/><rect x="8.00" y="7.00" width="1.00" height="1.00" fill="#f4c430"/><rect x="3.00" y="8.00" width="1.00" height="1.00" fill="#f4c430"/><rect x="5.00" y="8.00" width="1.00" height="1.00" fill="#f4c430"/></g></g>
<g transform="translate(404.87,331.29) scale(1.5461)">
<g stroke="#21304a" stroke-width="5" stroke-linecap="round" stroke-linejoin="round">
    <!-- tail -->
    <path d="M42 104 Q14 96 24 66" fill="none" stroke="#f7f7f4" stroke-width="16"/>
    <!-- legs -->
    <path d="M74 128 L70 156" fill="none" stroke="#f7f7f4" stroke-width="12"/>
    <path d="M104 132 L102 158" fill="none" stroke="#f7f7f4" stroke-width="12"/>
    <path d="M150 132 L150 158" fill="none" stroke="#f7f7f4" stroke-width="12"/>
    <path d="M176 128 L180 156" fill="none" stroke="#f7f7f4" stroke-width="12"/>
    <!-- body -->
    <ellipse cx="112" cy="104" rx="76" ry="40" fill="#f7f7f4"/>
    <!-- head -->
    <circle cx="192" cy="92" r="33" fill="#f7f7f4"/>
    <!-- snout -->
    <path d="M214 90 Q236 95 231 108 Q223 117 208 112 Z" fill="#f7f7f4"/>
    <!-- ears -->
    <path d="M168 70 Q170 44 186 46 Q188 64 180 78 Z" fill="#23262e" stroke="#21304a"/>
    <path d="M198 66 Q210 46 222 54 Q220 72 208 80 Z" fill="#23262e" stroke="#21304a"/>
    <!-- black saddle on back -->
    <path d="M58 96 Q70 70 118 66 Q166 70 176 98 Q150 112 112 112 Q74 112 58 96 Z"
          fill="#23262e" stroke="none"/>
    <!-- black head patch (leaves white blaze + muzzle) -->
    <path d="M170 92 Q168 58 190 58 Q206 60 206 80 Q196 76 186 80 Q176 82 170 92 Z"
          fill="#23262e" stroke="none"/>
    <!-- collar -->
    <path d="M166 104 Q184 118 204 104" fill="none" stroke="#e0a33a" stroke-width="8"/>
    <circle cx="186" cy="116" r="4" fill="#e0a33a" stroke="#21304a" stroke-width="2"/>
  </g>
<g stroke="#21304a" stroke-width="3.5" stroke-linecap="round" fill="none">
    <path d="M193 88 Q198 83 203 88"/>
    <ellipse cx="230" cy="102" rx="6" ry="5" fill="#21242b" stroke="none"/>
    <path d="M210 110 Q222 126 232 110 Z" fill="#7a2b38" stroke="#21304a"/>
    <path d="M219 116 Q223 132 229 117 Z" fill="#e8788a" stroke="#21304a"/>
  </g>
</g>
<g><polygon points="669.7,207.3 652.1,211.7 665.1,218.3 645.1,219.8 652.0,227.9 631.9,226.4 631.8,235.0 614.1,230.8 607.1,238.8 593.9,232.3 580.8,238.8 573.7,230.8 556.0,235.0 555.9,226.4 535.9,227.9 542.7,219.8 522.7,218.3 535.7,211.7 518.2,207.3 535.7,203.0 522.7,196.4 542.7,194.8 535.9,186.8 555.9,188.2 556.0,179.6 573.7,183.9 580.8,175.8 593.9,182.4 607.1,175.8 614.1,183.9 631.8,179.6 631.9,188.2 652.0,186.8 645.1,194.8 665.1,196.4 652.1,203.0" fill="#ffffff" stroke="#21304a" stroke-width="3" stroke-linejoin="round"/><path d="M588.5 228.0 L608.0 349.0 L610.4 225.8 Z" fill="#ffffff" stroke="#21304a" stroke-width="3" stroke-linejoin="round"/><text text-anchor="middle" font-family="DejaVu Sans, Helvetica, Arial, sans-serif" font-size="16" fill="#21304a" ><tspan x="593.9" y="213.3">Hlídám! Haf!</tspan></text></g>
</g>
<rect x="432.0" y="96.0" width="352.0" height="506.0" rx="10" fill="none" stroke="#21304a" stroke-width="3.5"/>
<clipPath id="clip56_626"><rect x="56.0" y="626.0" width="352.0" height="506.0" rx="10"/></clipPath>
<g clip-path="url(#clip56_626)">
<rect x="56.0" y="626.0" width="352.0" height="506.0" fill="#fbfaf6"/>
<g transform="translate(285.0,949.8) scale(10.120)"><g shape-rendering="crispEdges"><rect x="0.00" y="0.00" width="1.00" height="1.00" fill="#f3efe4"/><rect x="1.00" y="0.00" width="1.00" height="1.00" fill="#f3efe4"/><rect x="7.00" y="0.00" width="1.00" height="1.00" fill="#f3efe4"/><rect x="8.00" y="0.00" width="1.00" height="1.00" fill="#f3efe4"/><rect x="0.00" y="1.00" width="1.00" height="1.00" fill="#f3efe4"/><rect x="1.00" y="1.00" width="1.00" height="1.00" fill="#f3efe4"/><rect x="2.00" y="1.00" width="1.00" height="1.00" fill="#f3efe4"/><rect x="6.00" y="1.00" width="1.00" height="1.00" fill="#f3efe4"/><rect x="7.00" y="1.00" width="1.00" height="1.00" fill="#f3efe4"/><rect x="8.00" y="1.00" width="1.00" height="1.00" fill="#f3efe4"/><rect x="1.00" y="2.00" width="1.00" height="1.00" fill="#f3efe4"/><rect x="2.00" y="2.00" width="1.00" height="1.00" fill="#f3efe4"/><rect x="3.00" y="2.00" width="1.00" height="1.00" fill="#f3efe4"/><rect x="4.00" y="2.00" width="1.00" height="1.00" fill="#f3efe4"/><rect x="5.00" y="2.00" width="1.00" height="1.00" fill="#f3efe4"/><rect x="6.00" y="2.00" width="1.00" height="1.00" fill="#f3efe4"/><rect x="7.00" y="2.00" width="1.00" height="1.00" fill="#f3efe4"/><rect x="1.00" y="3.00" width="1.00" height="1.00" fill="#f3efe4"/><rect x="2.00" y="3.00" width="1.00" height="1.00" fill="#f3efe4"/><rect x="3.00" y="3.00" width="1.00" height="1.00" fill="#f3efe4"/><rect x="4.00" y="3.00" width="1.00" height="1.00" fill="#f3efe4"/><rect x="5.00" y="3.00" width="1.00" height="1.00" fill="#f3efe4"/><rect x="6.00" y="3.00" width="1.00" height="1.00" fill="#f3efe4"/><rect x="7.00" y="3.00" width="1.00" height="1.00" fill="#f3efe4"/><rect x="0.00" y="4.00" width="1.00" height="1.00" fill="#f3efe4"/><rect x="1.00" y="4.00" width="1.00" height="1.00" fill="#f3efe4"/><rect x="2.00" y="4.00" width="1.00" height="1.00" fill="#f3efe4"/><rect x="6.00" y="4.00" width="1.00" height="1.00" fill="#f3efe4"/><rect x="7.00" y="4.00" width="1.00" height="1.00" fill="#f3efe4"/><rect x="8.00" y="4.00" width="1.00" height="1.00" fill="#f3efe4"/><rect x="0.00" y="5.00" width="1.00" height="1.00" fill="#f3efe4"/><rect x="1.00" y="5.00" width="1.00" height="1.00" fill="#f3efe4"/><rect x="7.00" y="5.00" width="1.00" height="1.00" fill="#f3efe4"/><rect x="8.00" y="5.00" width="1.00" height="1.00" fill="#f3efe4"/></g></g>
<g transform="translate(63.33,863.82) scale(1.4056)">
<g stroke="#21304a" stroke-width="5" stroke-linecap="round" stroke-linejoin="round">
    <!-- tail -->
    <path d="M42 104 Q14 96 24 66" fill="none" stroke="#f7f7f4" stroke-width="16"/>
    <!-- legs -->
    <path d="M74 128 L70 156" fill="none" stroke="#f7f7f4" stroke-width="12"/>
    <path d="M104 132 L102 158" fill="none" stroke="#f7f7f4" stroke-width="12"/>
    <path d="M150 132 L150 158" fill="none" stroke="#f7f7f4" stroke-width="12"/>
    <path d="M176 128 L180 156" fill="none" stroke="#f7f7f4" stroke-width="12"/>
    <!-- body -->
    <ellipse cx="112" cy="104" rx="76" ry="40" fill="#f7f7f4"/>
    <!-- head -->
    <circle cx="192" cy="92" r="33" fill="#f7f7f4"/>
    <!-- snout -->
    <path d="M214 90 Q236 95 231 108 Q223 117 208 112 Z" fill="#f7f7f4"/>
    <!-- ears -->
    <path d="M168 70 Q170 44 186 46 Q188 64 180 78 Z" fill="#23262e" stroke="#21304a"/>
    <path d="M198 66 Q210 46 222 54 Q220 72 208 80 Z" fill="#23262e" stroke="#21304a"/>
    <!-- black saddle on back -->
    <path d="M58 96 Q70 70 118 66 Q166 70 176 98 Q150 112 112 112 Q74 112 58 96 Z"
          fill="#23262e" stroke="none"/>
    <!-- black head patch (leaves white blaze + muzzle) -->
    <path d="M170 92 Q168 58 190 58 Q206 60 206 80 Q196 76 186 80 Q176 82 170 92 Z"
          fill="#23262e" stroke="none"/>
    <!-- collar -->
    <path d="M166 104 Q184 118 204 104" fill="none" stroke="#e0a33a" stroke-width="8"/>
    <circle cx="186" cy="116" r="4" fill="#e0a33a" stroke="#21304a" stroke-width="2"/>
  </g>
<g stroke="#21304a" stroke-width="3.5" stroke-linecap="round" fill="none">
    <circle cx="198" cy="88" r="4.6" fill="#21304a" stroke="none"/>
    <circle cx="199.6" cy="86.6" r="1.4" fill="#ffffff" stroke="none"/>
    <ellipse cx="230" cy="102" rx="6" ry="5" fill="#21242b" stroke="none"/>
    <path d="M214 110 Q222 116 230 110"/>
  </g>
</g>
<g><rect x="95.8" y="713.4" width="216.2" height="68.0" rx="20.0" fill="#ffffff" stroke="#21304a" stroke-width="3"/><circle cx="113.8" cy="713.4" r="13" fill="#ffffff" stroke="#21304a" stroke-width="3"/><circle cx="149.8" cy="713.4" r="13" fill="#ffffff" stroke="#21304a" stroke-width="3"/><circle cx="185.8" cy="713.4" r="13" fill="#ffffff" stroke="#21304a" stroke-width="3"/><circle cx="221.9" cy="713.4" r="13" fill="#ffffff" stroke="#21304a" stroke-width="3"/><circle cx="257.9" cy="713.4" r="13" fill="#ffffff" stroke="#21304a" stroke-width="3"/><circle cx="293.9" cy="713.4" r="13" fill="#ffffff" stroke="#21304a" stroke-width="3"/><rect x="98.8" y="713.4" width="210.2" height="14" fill="#ffffff" stroke="none"/><rect x="95.8" y="713.4" width="216.2" height="68.0" rx="20.0" fill="none" stroke="#21304a" stroke-width="3"/><circle cx="225.1" cy="833.1" r="5.9" fill="#ffffff" stroke="#21304a" stroke-width="2.5"/><circle cx="228.5" cy="868.1" r="4.0" fill="#ffffff" stroke="#21304a" stroke-width="2.5"/><circle cx="231.0" cy="893.9" r="2.6" fill="#ffffff" stroke="#21304a" stroke-width="2.5"/><text text-anchor="middle" font-family="DejaVu Sans, Helvetica, Arial, sans-serif" font-size="16" fill="#21304a" ><tspan x="203.8" y="743.4">Kdyby tak byla nějaká</tspan><tspan x="203.8" y="763.4">kost...</tspan></text></g>
</g>
<rect x="56.0" y="626.0" width="352.0" height="506.0" rx="10" fill="none" stroke="#21304a" stroke-width="3.5"/>
<clipPath id="clip432_626"><rect x="432.0" y="626.0" width="352.0" height="506.0" rx="10"/></clipPath>
<g clip-path="url(#clip432_626)">
<rect x="432.0" y="626.0" width="352.0" height="506.0" fill="#fbfaf6"/>
<g transform="translate(667.3,737.3) scale(11.566)"><g shape-rendering="crispEdges"><rect x="1.00" y="0.00" width="1.00" height="1.00" fill="#e8556d"/><rect x="2.00" y="0.00" width="1.00" height="1.00" fill="#e8556d"/><rect x="5.00" y="0.00" width="1.00" height="1.00" fill="#e8556d"/><rect x="6.00" y="0.00" width="1.00" height="1.00" fill="#e8556d"/><rect x="0.00" y="1.00" width="1.00" height="1.00" fill="#e8556d"/><rect x="1.00" y="1.00" width="1.00" height="1.00" fill="#e8556d"/><rect x="2.00" y="1.00" width="1.00" height="1.00" fill="#e8556d"/><rect x="3.00" y="1.00" width="1.00" height="1.00" fill="#e8556d"/><rect x="4.00" y="1.00" width="1.00" height="1.00" fill="#e8556d"/><rect x="5.00" y="1.00" width="1.00" height="1.00" fill="#e8556d"/><rect x="6.00" y="1.00" width="1.00" height="1.00" fill="#e8556d"/><rect x="7.00" y="1.00" width="1.00" height="1.00" fill="#e8556d"/><rect x="0.00" y="2.00" width="1.00" height="1.00" fill="#e8556d"/><rect x="1.00" y="2.00" width="1.00" height="1.00" fill="#e8556d"/><rect x="2.00" y="2.00" width="1.00" height="1.00" fill="#e8556d"/><rect x="3.00" y="2.00" width="1.00" height="1.00" fill="#e8556d"/><rect x="4.00" y="2.00" width="1.00" height="1.00" fill="#e8556d"/><rect x="5.00" y="2.00" width="1.00" height="1.00" fill="#e8556d"/><rect x="6.00" y="2.00" width="1.00" height="1.00" fill="#e8556d"/><rect x="7.00" y="2.00" width="1.00" height="1.00" fill="#e8556d"/><rect x="0.00" y="3.00" width="1.00" height="1.00" fill="#e8556d"/><rect x="1.00" y="3.00" width="1.00" height="1.00" fill="#e8556d"/><rect x="2.00" y="3.00" width="1.00" height="1.00" fill="#e8556d"/><rect x="3.00" y="3.00" width="1.00" height="1.00" fill="#e8556d"/><rect x="4.00" y="3.00" width="1.00" height="1.00" fill="#e8556d"/><rect x="5.00" y="3.00" width="1.00" height="1.00" fill="#e8556d"/><rect x="6.00" y="3.00" width="1.00" height="1.00" fill="#e8556d"/><rect x="7.00" y="3.00" width="1.00" height="1.00" fill="#e8556d"/><rect x="1.00" y="4.00" width="1.00" height="1.00" fill="#e8556d"/><rect x="2.00" y="4.00" width="1.00" height="1.00" fill="#e8556d"/><rect x="3.00" y="4.00" width="1.00" height="1.00" fill="#e8556d"/><rect x="4.00" y="4.00" width="1.00" height="1.00" fill="#e8556d"/><rect x="5.00" y="4.00" width="1.00" height="1.00" fill="#e8556d"/><rect x="6.00" y="4.00" width="1.00" height="1.00" fill="#e8556d"/><rect x="2.00" y="5.00" width="1.00" height="1.00" fill="#e8556d"/><rect x="3.00" y="5.00" width="1.00" height="1.00" fill="#e8556d"/><rect x="4.00" y="5.00" width="1.00" height="1.00" fill="#e8556d"/><rect x="5.00" y="5.00" width="1.00" height="1.00" fill="#e8556d"/><rect x="3.00" y="6.00" width="1.00" height="1.00" fill="#e8556d"/><rect x="4.00" y="6.00" width="1.00" height="1.00" fill="#e8556d"/></g></g>
<g transform="translate(436.81,742.38) scale(1.3599)">
<g stroke="#21304a" stroke-width="5" stroke-linecap="round" stroke-linejoin="round">
    <!-- legs -->
    <path d="M84 238 L80 300" fill="none" stroke="#2f3a4f" stroke-width="17"/>
    <path d="M116 238 L120 300" fill="none" stroke="#2f3a4f" stroke-width="17"/>
    <!-- shoes -->
    <path d="M68 303 Q80 313 93 305" fill="none" stroke="#21304a" stroke-width="12"/>
    <path d="M107 305 Q120 313 132 303" fill="none" stroke="#21304a" stroke-width="12"/>
    <!-- torso -->
    <path d="M72 160 Q100 150 128 160 L122 236 Q100 245 78 236 Z" fill="#4c8bf5"/>
    <!-- neck -->
    <path d="M100 140 L100 156" stroke="#f3c9a0" stroke-width="18" stroke-linecap="butt"/>
    <!-- head -->
    <circle cx="100" cy="92" r="50" fill="#f3c9a0"/>
    <!-- hair -->
    <path d="M51 92 Q48 42 100 42 Q152 42 149 92 Q140 64 100 62 Q60 64 51 92 Z"
          fill="#6b4a2b" stroke="none"/>
  </g>
<g fill="none" stroke="#4c8bf5" stroke-width="13" stroke-linecap="round">
    <path d="M76 168 Q63 200 70 230"/>
    <path d="M124 174 Q152 162 182 158"/>
  </g>
  <circle cx="70" cy="232" r="8" fill="#f3c9a0" stroke="#21304a" stroke-width="4"/>
  <circle cx="184" cy="158" r="8" fill="#f3c9a0" stroke="#21304a" stroke-width="4"/>
<g stroke="#21304a" stroke-width="3" stroke-linecap="round" fill="none">
    <circle cx="83" cy="89" r="6.4" fill="#ffffff" stroke="#21304a"/>
    <circle cx="83" cy="89" r="2.6" fill="#21304a" stroke="none"/>
    <circle cx="117" cy="89" r="6.4" fill="#ffffff" stroke="#21304a"/>
    <circle cx="117" cy="89" r="2.6" fill="#21304a" stroke="none"/>
    <path d="M74 76 Q83 71 92 76" stroke-width="4"/>
    <path d="M108 76 Q117 71 126 76" stroke-width="4"/>
    <ellipse cx="100" cy="116" rx="7" ry="10" fill="#7a2b38" stroke="#21304a"/>
  </g>
</g>
<g><rect x="547.3" y="703.2" width="135.5" height="48.0" rx="18.0" fill="#ffffff" stroke="#21304a" stroke-width="3"/><path d="M589.5 743.2 L579.8 853.7 L610.7 749.1 Z" fill="#ffffff" stroke="#21304a" stroke-width="3" stroke-linejoin="round"/><text text-anchor="middle" font-family="DejaVu Sans, Helvetica, Arial, sans-serif" font-size="16" fill="#21304a" ><tspan x="615.0" y="733.2">Hodná holka!</tspan></text></g>
</g>
<rect x="432.0" y="626.0" width="352.0" height="506.0" rx="10" fill="none" stroke="#21304a" stroke-width="3.5"/>
</svg>